<?xml version="1.0" encoding="utf-8"?><svg xmlns="http://www.w3.org/2000/svg" xmlns:xlink="http://www.w3.org/1999/xlink"><symbol viewBox="0 0 17638.88 17638.88" shape-rendering="geometricPrecision" text-rendering="geometricPrecision" image-rendering="optimizeQuality" fill-rule="evenodd" clip-rule="evenodd" id="logo" xmlns="http://www.w3.org/2000/svg"><defs><style>.afil1{fill:#3b5c75}.afil2{fill:#254b77}</style></defs><g id="aСлой_x0020_1"><g id="a_1399289680688"><path d="M3407.53 6423.41c739.57-857.84 473.14-1505.6-253.56-2063.53-95.28-73.12-167.24-114.99-273.81-83.86 104.36-101.66 297.64-165.76 469.47-106.33 244.09 84.35 470.64 198.43 737.07 183.56 540.61-30.14 954.15 949.32 1896.39 898.92-264.46 191.23-647.37 280.74-1084.54 102.2 71.77 233.23 39.83 586.92-3.13 761.84-435.47 262.25-921.56 356.31-1487.89 307.2z"/><path class="afil1" d="M6547.77 7298c-490.63 257.85-1175.77 601.35-1727.81 417.05 448.17 685.19 1594.11 1042.75 2587.43 520.72l3648.72-1917.78c490.58-257.84 1271.85-594.39 1648.56-405.36-391.82-991.81-1506.99-1058.72-2508.3-532.4L6547.77 7298z"/><path class="afil1" d="M5216.32 6293.68c-491.15 256.81-1294.95 465-1771.05 335.09 657.77 784.23 1673.18 1103.34 2630.72 602.68l7116.81-3721.18c491.15-256.86 1186.51-580.83 1560.28-575.19-448.08-685.26-1659.77-760.09-2419.95-362.63L5216.32 6293.68z"/><path class="afil2" d="M4433.31 9587.45c-192.7 565.43 37.81 1527.15 735.85 2025.71l5254 3752.44c451.04 322.12 1055.13 794.85 1219.36 1130.72 408.01-709.75-73.98-1824.04-772.6-2321.86L4433.31 9587.45z"/><path class="afil1" d="M9586.74 12311.69c-299.34-204.14-900.17-391.44-1143.96-142.01 252.51-801.54 1272.34-761.21 1676.23-483.95l1258.91 864.04c-319.72 299.22-1031.63 280.01-1436.33 3.92l-354.85-242z"/><path class="afil2" d="M9046.98 2570.04c480.47-256.74 1151.48-922.84 990.62-1421.84 889.03 897.56 119.86 2223.95-531.04 2568.41L6741.27 5180.28c-173.8-634.94 351.85-1565.82 1001.38-1913l1304.33-697.24z"/><path class="afil1" d="M4528.66 7850.6c-451.34-321.82-1055.14-794.91-1219.37-1130.73-407.95 709.81 8.48 1776.65 608.15 2204.12L8264 12023.33c258.52-605.39-132.05-1603.88-731.8-2031.48L4528.66 7850.6z"/></g></g></symbol></svg>